<svg width="36" height="35" viewBox="0 0 36 35" fill="none" xmlns="http://www.w3.org/2000/svg">
<g clip-path="url(#clip0_1_1808)">
<g clip-path="url(#clip1_1_1808)">
<g clip-path="url(#clip2_1_1808)">
<path fill-rule="evenodd" clip-rule="evenodd" d="M10.3683 1.23926H25.6317C26.9832 1.23926 28.0892 2.34527 28.0892 3.69668V18.9601C28.0892 20.3115 26.9832 21.4175 25.6317 21.4175H10.3683C9.0169 21.4175 7.91089 20.3115 7.91089 18.9601V3.69668C7.91089 2.34527 9.0169 1.23926 10.3683 1.23926Z" fill="#FFD164"/>
<path fill-rule="evenodd" clip-rule="evenodd" d="M14.7331 1.23926H21.2666V9.26543C21.2666 9.47496 21.159 9.65425 20.9734 9.75339C20.7899 9.85324 20.581 9.8448 20.4053 9.7316L18.3043 8.3584C18.1152 8.23465 17.8839 8.23465 17.6947 8.3584L15.5938 9.7316C15.4187 9.8455 15.2092 9.85324 15.0256 9.75339C14.84 9.65355 14.7324 9.47425 14.7324 9.26543L14.7331 1.23926Z" fill="#FF4155"/>
<path fill-rule="evenodd" clip-rule="evenodd" d="M10.3683 1.23926H12.1739C10.8225 1.23926 9.71651 2.34527 9.71651 3.69668V18.9601C9.71651 20.3115 10.8225 21.4175 12.1739 21.4175H10.3683C9.0169 21.4175 7.91089 20.3115 7.91089 18.9601V3.69668C7.91089 2.34527 9.0169 1.23926 10.3683 1.23926Z" fill="#E6BC5A"/>
<path fill-rule="evenodd" clip-rule="evenodd" d="M2.86035 27.9869L4.7834 28.3996C12.2478 29.1907 16.1684 37.6654 27.8937 29.1091L32.4141 28.1423L30.4868 18.1966L26.7856 18.9876C19.7122 14.9017 14.0555 17.369 8.8798 18.9159L6.90051 18.4933L5.07309 18.1024L2.86035 27.9869Z" fill="#FFDAA2"/>
<path fill-rule="evenodd" clip-rule="evenodd" d="M30.4868 18.1963L26.7855 18.9874C23.658 17.0917 19.8893 16.1967 15.0265 17.1677L11.3034 20.6376C8.50918 23.2209 13.2989 23.5295 16.4236 20.4147C18.7636 24.8852 24.7387 25.023 27.8936 29.1088L32.414 28.142L30.4868 18.1963Z" fill="#FBBD80"/>
<path fill-rule="evenodd" clip-rule="evenodd" d="M9.60697 30.5615L11.4723 28.9155C12.0566 28.4015 12.1143 27.5001 11.5982 26.9165C11.0821 26.3322 10.1828 26.2745 9.59713 26.7906L7.73174 28.4352C7.14744 28.9513 7.0919 29.8506 7.60588 30.4363C8.12268 31.0199 9.02338 31.0762 9.60697 30.5615Z" fill="#FBBD80"/>
<path fill-rule="evenodd" clip-rule="evenodd" d="M12.9058 31.4309L14.7712 29.7863C15.3555 29.2702 15.4132 28.3709 14.8971 27.7852C14.381 27.2009 13.4817 27.1453 12.896 27.6593L11.0306 29.3053C10.4463 29.8193 10.3907 30.7207 10.9047 31.3043C11.4208 31.8893 12.3215 31.947 12.9058 31.4309Z" fill="#FBBD80"/>
<path fill-rule="evenodd" clip-rule="evenodd" d="M15.5786 32.8515L17.444 31.207C18.0283 30.693 18.0859 29.7916 17.5698 29.208C17.0559 28.6223 16.1544 28.566 15.5709 29.0821L13.7055 30.7267C13.1198 31.2407 13.0635 32.142 13.5796 32.7256C14.0936 33.312 14.9943 33.3683 15.5786 32.8515Z" fill="#FBBD80"/>
<path fill-rule="evenodd" clip-rule="evenodd" d="M17.7631 30.9264L17.247 31.3828C16.6613 31.8989 16.605 32.7982 17.1197 33.3817C17.6358 33.9674 18.5365 34.0237 19.1208 33.509L19.639 33.0506C20.2233 32.5366 20.281 31.6352 19.7649 31.0516C19.2474 30.468 18.3488 30.4103 17.7631 30.9264Z" fill="#FBBD80"/>
<path fill-rule="evenodd" clip-rule="evenodd" d="M0.00170898 27.3765L2.11872 17.4702L6.90274 18.4925L4.78573 28.3989L0.00170898 27.3765Z" fill="#0593FC"/>
<path fill-rule="evenodd" clip-rule="evenodd" d="M29.1018 18.496L33.8858 17.4736L36.0028 27.38L31.2188 28.4024L29.1018 18.496Z" fill="#0593FC"/>
<path fill-rule="evenodd" clip-rule="evenodd" d="M2.11711 17.4712L3.11977 17.687L1.00266 27.5905L0 27.3775L2.11711 17.4712Z" fill="#0584E3"/>
</g>
</g>
</g>
<defs>
<clipPath id="clip0_1_1808">
<rect width="36" height="34" fill="white" transform="translate(0 0.550293)"/>
</clipPath>
<clipPath id="clip1_1_1808">
<rect width="36" height="34" fill="white" transform="translate(0 0.550293)"/>
</clipPath>
<clipPath id="clip2_1_1808">
<rect width="36" height="34" fill="white" transform="translate(0 0.550293)"/>
</clipPath>
</defs>
</svg>
