<svg width="32" height="33" viewBox="0 0 32 33" fill="none" xmlns="http://www.w3.org/2000/svg">
<g clip-path="url(#clip0_1_1831)">
<g clip-path="url(#clip1_1_1831)">
<g clip-path="url(#clip2_1_1831)">
<mask id="mask0_1_1831" style="mask-type:luminance" maskUnits="userSpaceOnUse" x="0" y="0" width="32" height="33">
<path d="M32 0.550293H0V32.5503H32V0.550293Z" fill="white"/>
</mask>
<g mask="url(#mask0_1_1831)">
<path d="M32.0001 5.15274V9.8889H26.0618V5.15274C26.0589 3.51558 27.3838 2.18621 29.0207 2.18359H29.0356C30.671 2.18359 31.9972 3.508 32.0001 5.14334V5.15274Z" fill="#00ACEA"/>
<path d="M7.67056 2.18359H29.0208C27.3839 2.18621 26.059 3.51558 26.0618 5.15274V26.9082C26.0592 29.1103 24.2734 30.894 22.0714 30.894H22.0593C21.9671 30.894 21.8759 30.8906 21.785 30.8841C19.693 30.7378 18.0712 28.9969 18.0736 26.8996V24.3198H4.70142V24.2842L4.84251 4.97612C4.84251 3.421 6.11545 2.18359 7.67056 2.18359ZM19.3055 11.6246V7.8081L15.0976 5.74114L10.8905 7.80209V11.6246C10.8905 12.6026 11.5239 13.8005 12.3325 14.3523L15.0976 16.2377L17.8627 14.3523C18.6714 13.8005 19.3055 12.6026 19.3055 11.6246Z" fill="#00EFD1"/>
<path d="M21.785 30.8841L21.7845 30.8941H3.99048C1.78844 30.8941 0.00261277 29.1103 0 26.9083V24.3198H18.0736V26.8997C18.0712 28.9969 19.6929 30.7378 21.785 30.8841Z" fill="#00ACEA"/>
<path d="M19.3053 7.80817V11.6247C19.3053 12.6026 18.6712 13.8006 17.8626 14.3524L15.0975 16.2378L12.3324 14.3524C11.5237 13.8006 10.8904 12.6026 10.8904 11.6247V7.80216L15.0975 5.74121L19.3053 7.80817Z" fill="#00ACEA"/>
<path d="M14.572 12.5892H14.5707C14.4283 12.5887 14.2919 12.5317 14.1918 12.4306L13.1148 11.3429C12.9782 11.2076 12.9246 11.0093 12.9748 10.8232C13.025 10.6375 13.171 10.4929 13.3573 10.4446C13.5436 10.3963 13.7414 10.4519 13.8754 10.5899L14.5741 11.2954L16.3228 9.54739C16.5318 9.33837 16.8707 9.33837 17.0795 9.54739C17.2885 9.75641 17.2885 10.095 17.0795 10.304L14.9506 12.4324C14.85 12.5328 14.7139 12.5892 14.572 12.5892Z" fill="#FEDB41"/>
<path d="M21.7524 19.2811H8.91009C8.61459 19.2811 8.375 19.0418 8.375 18.746C8.375 18.4505 8.61459 18.2109 8.91009 18.2109H21.7524C22.0479 18.2109 22.2875 18.4505 22.2875 18.746C22.2875 19.0418 22.0479 19.2811 21.7524 19.2811Z" fill="#00ACEA"/>
<path d="M21.7524 21.7557H8.91009C8.61459 21.7557 8.375 21.5164 8.375 21.2206C8.375 20.9251 8.61459 20.6855 8.91009 20.6855H21.7524C22.0479 20.6855 22.2875 20.9251 22.2875 21.2206C22.2875 21.5164 22.0479 21.7557 21.7524 21.7557Z" fill="#00ACEA"/>
</g>
</g>
</g>
</g>
<defs>
<clipPath id="clip0_1_1831">
<rect width="32" height="32" fill="white" transform="translate(0 0.550293)"/>
</clipPath>
<clipPath id="clip1_1_1831">
<rect width="32" height="32" fill="white" transform="translate(0 0.550293)"/>
</clipPath>
<clipPath id="clip2_1_1831">
<rect width="32" height="32" fill="white" transform="translate(0 0.550293)"/>
</clipPath>
</defs>
</svg>
