<svg width="28" height="35" viewBox="0 0 28 35" fill="none" xmlns="http://www.w3.org/2000/svg">
<g clip-path="url(#clip0_1_1762)">
<path d="M27.5563 7.25684V16.313C27.5563 24.5255 21.9876 31.7255 14.0001 33.7505C6.0126 31.7255 0.443848 24.5255 0.443848 16.313V7.25684C6.6876 6.52559 10.2876 4.16309 14.0001 1.35059C17.7126 4.16309 21.3126 6.52559 27.5563 7.25684Z" fill="#FFD15D"/>
<path d="M14 30.1505C7.98125 28.238 3.875 22.6692 3.875 16.313V10.1817C8.09375 9.28174 11.1875 7.53799 14 5.62549C16.8687 7.59424 19.9062 9.28174 24.125 10.1817V16.313C24.125 22.6692 20.0187 28.238 14 30.1505Z" fill="#F5B92D"/>
<path d="M11.75 23.0629L8.375 19.7441L10.1188 18.0566L11.75 19.6879L17.8813 13.5566L19.625 15.2441L11.75 23.0629Z" fill="white"/>
</g>
<defs>
<clipPath id="clip0_1_1762">
<rect width="28" height="34" fill="white" transform="translate(0 0.550293)"/>
</clipPath>
</defs>
</svg>
