<svg width="36" height="37" viewBox="0 0 36 37" fill="none" xmlns="http://www.w3.org/2000/svg">
<g clip-path="url(#clip0_1_1775)">
<g clip-path="url(#clip1_1_1775)">
<g clip-path="url(#clip2_1_1775)">
<mask id="mask0_1_1775" style="mask-type:luminance" maskUnits="userSpaceOnUse" x="0" y="0" width="36" height="37">
<path d="M36 0.550293H0V36.5503H36V0.550293Z" fill="white"/>
</mask>
<g mask="url(#mask0_1_1775)">
<path d="M25.7205 20.333L18.6764 22.1646C18.2411 22.2778 17.7843 22.2801 17.3479 22.1713L9.91683 20.3183C8.73839 20.0244 7.91138 18.9659 7.91138 17.7513V9.63268C7.91131 4.61659 11.9777 0.550293 16.9938 0.550293H18.6179C23.634 0.550293 27.7003 4.61659 27.7003 9.63268V17.7726C27.7003 18.9773 26.8864 20.0298 25.7205 20.333Z" fill="#FD9727"/>
<path d="M18.6179 0.550293H16.9938C16.5858 0.550293 16.1843 0.577644 15.7905 0.629746C20.2378 1.21847 23.6697 5.02455 23.6697 9.63268V17.7726C23.6697 18.9773 22.8559 20.0298 21.6899 20.333L15.9556 21.8241L17.3479 22.1713C17.7844 22.2801 18.2411 22.2778 18.6765 22.1646L25.7206 20.333C26.8865 20.0298 27.7004 18.9773 27.7004 17.7725V9.63268C27.7003 4.61659 23.634 0.550293 18.6179 0.550293Z" fill="#FF6D3A"/>
<path d="M8.33174 15.3026H10.259V10.5972H8.33174C7.76552 10.5972 7.30652 11.0562 7.30652 11.6224V14.2773C7.30652 14.8436 7.76552 15.3026 8.33174 15.3026Z" fill="#3D6687"/>
<path d="M27.6682 15.3026H25.741V10.5972H27.6682C28.2345 10.5972 28.6935 11.0562 28.6935 11.6224V14.2773C28.6935 14.8436 28.2345 15.3026 27.6682 15.3026Z" fill="#3D6687"/>
<path d="M22.3518 23.5129C21.6778 23.3774 21.1928 22.7853 21.1928 22.0978V18.8442H18H14.8073V22.0978C14.8073 22.7853 14.3223 23.3774 13.6483 23.5129L12.8704 23.6693V28.8941H18H23.1297V23.6693L22.3518 23.5129Z" fill="#FED9A8"/>
<path d="M28.9993 25.2669L22.5954 23.2702C22.3966 23.2082 22.1798 23.2585 22.0287 23.4017L18 27.2196L13.9713 23.4018C13.8201 23.2586 13.6033 23.2082 13.4046 23.2702L7.00066 25.267C4.16145 26.1029 2.21204 28.7091 2.21204 31.6688V35.9351C2.21204 36.2747 2.48738 36.5501 2.82699 36.5501H33.173C33.5126 36.5501 33.788 36.2747 33.788 35.9351V31.6688C33.7879 28.709 31.8385 26.1028 28.9993 25.2669Z" fill="#FF4C4C"/>
<path d="M28.9993 25.2669L22.5954 23.2702C22.3966 23.2082 22.1799 23.2585 22.0287 23.4017L21.2756 24.1154L24.9687 25.2669C27.8079 26.1028 29.7573 28.709 29.7573 31.6688V36.55H33.173C33.5127 36.55 33.788 36.2746 33.788 35.935V31.6688C33.7879 28.709 31.8385 26.1028 28.9993 25.2669Z" fill="#EF2929"/>
<path d="M17.9999 21.5494C13.6046 21.5494 10.0415 17.9863 10.0415 13.591V11.3544C10.0415 6.95915 13.6047 3.396 17.9999 3.396C22.3952 3.396 25.9584 6.95915 25.9584 11.3544V13.591C25.9584 17.9864 22.3953 21.5494 17.9999 21.5494Z" fill="#FED9A8"/>
<path d="M21.9278 4.43164V13.591C21.9278 17.29 19.4041 20.3994 15.9846 21.2918C16.6283 21.4597 17.3036 21.5495 17.9999 21.5495C22.3953 21.5495 25.9584 17.9863 25.9584 13.591V11.3544C25.9584 8.38762 24.3348 5.80027 21.9278 4.43164Z" fill="#F4C892"/>
<path d="M13.9712 23.4022L17.9999 27.2201L15.5154 28.0665C14.9066 28.2738 14.2329 28.0936 13.809 27.6099L10.736 24.1027L13.4045 23.2707C13.6034 23.2087 13.8201 23.259 13.9712 23.4022Z" fill="#D4145A"/>
<path d="M22.0286 23.4022L17.9999 27.2201L20.2517 27.9872C21.0013 28.2425 21.8309 28.0205 22.3528 27.425L25.2638 24.1027L22.5953 23.2707C22.3964 23.2087 22.1797 23.259 22.0286 23.4022Z" fill="#D4145A"/>
<path d="M13.2461 33.3924H9.14986C8.9224 33.3924 8.73804 33.208 8.73804 32.9806V31.1662C8.73804 30.9388 8.9224 30.7544 9.14986 30.7544H13.2461C13.4736 30.7544 13.6579 30.9388 13.6579 31.1662V32.9806C13.658 33.208 13.4736 33.3924 13.2461 33.3924Z" fill="#EDA558"/>
<path d="M27.7004 11.3103C27.7004 11.3103 24.2667 11.0377 23.0918 7.87937C23.0918 7.87937 14.7915 14.5247 7.91138 11.3103V9.63268C7.91138 4.61659 11.9778 0.550293 16.9938 0.550293H18.618C23.6341 0.550293 27.7004 4.61659 27.7004 9.63268V11.3103Z" fill="#FD9727"/>
<path d="M18.6179 0.550293H16.9938C16.5858 0.550293 16.1843 0.577644 15.7905 0.629746C20.0192 1.1895 23.3296 4.65822 23.6448 8.9593C25.0928 11.1029 27.7003 11.3103 27.7003 11.3103V9.63268C27.7003 4.61659 23.634 0.550293 18.6179 0.550293Z" fill="#FF6D3A"/>
<path d="M29.692 30.4917C29.3917 30.4917 29.1482 30.7352 29.1482 31.0355V36.5501H30.2357V31.0355C30.2358 30.7351 29.9923 30.4917 29.692 30.4917Z" fill="#D4145A"/>
<path d="M6.30796 30.4917C6.00765 30.4917 5.76416 30.7352 5.76416 31.0355V36.5501H6.85168V31.0355C6.85168 30.7351 6.60826 30.4917 6.30796 30.4917Z" fill="#D4145A"/>
<path d="M26.1801 15.3027V16.2946C26.1801 17.1496 25.5685 17.8752 24.7257 18.0196L19.2538 18.958C18.9581 19.0086 18.7594 19.2895 18.8101 19.5853C18.8555 19.8499 19.0852 20.0368 19.3449 20.0368C19.3755 20.0368 19.4063 20.0343 19.4374 20.0289L24.9093 19.0906C26.2752 18.8563 27.2666 17.6805 27.2666 16.2946V15.3027H26.1801Z" fill="#3D6687"/>
<path d="M19.4188 20.5598C18.9162 20.5598 18.4717 20.1982 18.3838 19.6861C18.2857 19.1139 18.6701 18.5704 19.2423 18.4722L21.015 18.1682C21.5873 18.0699 22.1307 18.4544 22.2289 19.0266C22.327 19.5988 21.9426 20.1424 21.3704 20.2405L19.5977 20.5445C19.5376 20.5548 19.4777 20.5598 19.4188 20.5598Z" fill="#D4145A"/>
</g>
</g>
</g>
</g>
<defs>
<clipPath id="clip0_1_1775">
<rect width="36" height="36" fill="white" transform="translate(0 0.550293)"/>
</clipPath>
<clipPath id="clip1_1_1775">
<rect width="36" height="36" fill="white" transform="translate(0 0.550293)"/>
</clipPath>
<clipPath id="clip2_1_1775">
<rect width="36" height="36" fill="white" transform="translate(0 0.550293)"/>
</clipPath>
</defs>
</svg>
